# xmcd
#
# Track frame offsets:
#	150
#	20470
#	38407
#	58030
#	74660
#	93862
#	111687
#	119735
#	135215
#	149267
#	172495
#	190567
#
# Disc length: 2671 seconds
#
# Revision: 0
# Processed by: cddbd v1.5.2PL0 Copyright (c) Steve Scherf et al.
# Submitted via: audiograbber 1.83.01
#
DISCID=b00a6d0c
DTITLE=Janis Joplin - Highlights
DYEAR=1990
DGENRE=
TTITLE0=Me and Bobby McGee
TTITLE1=Cry Baby
TTITLE2=Kozmic Blues
TTITLE3=Move Over
TTITLE4=Piece of My Heart
TTITLE5=Try (Just a Little Bit Harder)
TTITLE6=Mercedes Benz
TTITLE7=Get It While You Can
TTITLE8=Down on Me
TTITLE9=Ball and Chain
TTITLE10=Summertime
TTITLE11=Mary Jane
EXTD=
EXTT0=
EXTT1=
EXTT2=
EXTT3=
EXTT4=
EXTT5=
EXTT6=
EXTT7=
EXTT8=
EXTT9=
EXTT10=
EXTT11=
PLAYORDER=
